<svg xmlns="http://www.w3.org/2000/svg" width="1299" height="605.882" viewBox="0 0 1299 605.882"><defs><style>.a{fill:none;}.b{fill:#dbdbdb;}</style></defs><g transform="translate(-235.07 -333.24)"><g transform="translate(235.07 333.24)"><line class="a" x1="9.88" y2="9.898"/><path class="b" d="M246.185,333.24,235.07,344.373V341.92l8.645-8.68Z" transform="translate(-235.07 -333.24)"/></g><g transform="translate(235.07 333.24)"><line class="a" x1="48.932" y2="49.036"/><path class="b" d="M285.22,333.24l-50.15,50.271v-2.47l47.679-47.8Z" transform="translate(-235.07 -333.24)"/></g><g transform="translate(235.07 333.24)"><line class="a" x1="87.966" y2="88.175"/><path class="b" d="M324.271,333.24l-89.2,89.41V420.2l86.748-86.957Z" transform="translate(-235.07 -333.24)"/></g><g transform="translate(235.07 333.24)"><line class="a" x1="127.018" y2="127.313"/><path class="b" d="M363.305,333.24,235.07,461.788v-2.47L360.853,333.24Z" transform="translate(-235.07 -333.24)"/></g><g transform="translate(235.07 333.24)"><line class="a" x1="166.052" y2="166.452"/><path class="b" d="M402.357,333.24,235.07,500.927v-2.47L399.887,333.24Z" transform="translate(-235.07 -333.24)"/></g><g transform="translate(235.07 333.24)"><line class="a" x1="205.103" y2="205.59"/><path class="b" d="M441.391,333.24,235.07,540.066V537.6L438.938,333.24Z" transform="translate(-235.07 -333.24)"/></g><g transform="translate(235.07 333.24)"><line class="a" x1="244.138" y2="244.729"/><path class="b" d="M480.443,333.24,235.07,579.2v-2.488l242.9-243.477Z" transform="translate(-235.07 -333.24)"/></g><g transform="translate(235.07 333.24)"><line class="a" x1="283.172" y2="283.85"/><path class="b" d="M519.477,333.24,235.07,618.343v-2.47L517.024,333.24Z" transform="translate(-235.07 -333.24)"/></g><g transform="translate(235.07 333.24)"><line class="a" x1="322.223" y2="323.006"/><path class="b" d="M558.511,333.24,235.07,657.464v-2.453L556.058,333.24Z" transform="translate(-235.07 -333.24)"/></g><g transform="translate(235.07 333.24)"><line class="a" x1="361.258" y2="362.127"/><path class="b" d="M597.563,333.24,235.07,696.62v-2.47L595.11,333.24Z" transform="translate(-235.07 -333.24)"/></g><g transform="translate(235.07 333.24)"><line class="a" x1="400.309" y2="401.266"/><path class="b" d="M636.614,333.24,235.07,735.741v-2.453L634.144,333.24Z" transform="translate(-235.07 -333.24)"/></g><g transform="translate(235.07 333.24)"><line class="a" x1="439.361" y2="440.422"/><path class="b" d="M675.648,333.24,235.07,774.879v-2.47L673.178,333.24Z" transform="translate(-235.07 -333.24)"/></g><g transform="translate(235.07 333.24)"><line class="a" x1="478.395" y2="479.543"/><path class="b" d="M714.7,333.24,235.07,814.018v-2.453L712.247,333.24Z" transform="translate(-235.07 -333.24)"/></g><g transform="translate(235.07 333.24)"><line class="a" x1="517.446" y2="518.682"/><path class="b" d="M753.734,333.24,235.07,853.157v-2.47L751.281,333.24Z" transform="translate(-235.07 -333.24)"/></g><g transform="translate(235.07 333.24)"><line class="a" x1="556.481" y2="557.82"/><path class="b" d="M792.786,333.24,235.07,892.3v-2.47L790.316,333.24Z" transform="translate(-235.07 -333.24)"/></g><g transform="translate(235.07 333.24)"><line class="a" x1="595.532" y2="596.959"/><path class="b" d="M831.82,333.24,235.07,931.434v-2.47l594.3-595.724Z" transform="translate(-235.07 -333.24)"/></g><g transform="translate(263.963 333.24)"><line class="a" x1="604.421" y2="605.882" transform="translate(1.252)"/><path class="b" d="M858.589,333.24,254.15,939.122h-2.47L856.118,333.24Z" transform="translate(-251.68 -333.24)"/></g><g transform="translate(303.032 333.24)"><line class="a" x1="604.421" y2="605.882" transform="translate(1.218)"/><path class="b" d="M881.014,333.24,276.575,939.122H274.14L878.561,333.24Z" transform="translate(-274.14 -333.24)"/></g><g transform="translate(342.066 333.24)"><line class="a" x1="604.421" y2="605.882" transform="translate(1.235)"/><path class="b" d="M903.454,333.24,299.033,939.122H296.58L901,333.24Z" transform="translate(-296.58 -333.24)"/></g><g transform="translate(381.1 333.24)"><line class="a" x1="604.421" y2="605.882" transform="translate(1.235)"/><path class="b" d="M925.911,333.24,321.49,939.122h-2.47L923.458,333.24Z" transform="translate(-319.02 -333.24)"/></g><g transform="translate(420.152 333.24)"><line class="a" x1="604.421" y2="605.882" transform="translate(1.235)"/><path class="b" d="M948.361,333.24,343.923,939.122H341.47L945.891,333.24Z" transform="translate(-341.47 -333.24)"/></g><g transform="translate(459.186 333.24)"><line class="a" x1="604.404" y2="605.882" transform="translate(1.252)"/><path class="b" d="M970.8,333.24,366.38,939.122h-2.47L968.349,333.24Z" transform="translate(-363.91 -333.24)"/></g><g transform="translate(498.238 333.24)"><line class="a" x1="604.438" y2="605.882" transform="translate(1.218)"/><path class="b" d="M993.234,333.24,388.813,939.122H386.36L990.781,333.24Z" transform="translate(-386.36 -333.24)"/></g><g transform="translate(537.272 333.24)"><line class="a" x1="604.421" y2="605.882" transform="translate(1.235)"/><path class="b" d="M1015.691,333.24,411.253,939.122H408.8L1013.239,333.24Z" transform="translate(-408.8 -333.24)"/></g><g transform="translate(576.323 333.24)"><line class="a" x1="604.421" y2="605.882" transform="translate(1.235)"/><path class="b" d="M1038.124,333.24,433.7,939.122H431.25L1035.671,333.24Z" transform="translate(-431.25 -333.24)"/></g><g transform="translate(615.375 333.24)"><line class="a" x1="604.438" y2="605.882" transform="translate(1.218)"/><path class="b" d="M1060.574,333.24,456.153,939.122H453.7L1058.121,333.24Z" transform="translate(-453.7 -333.24)"/></g><g transform="translate(654.409 333.24)"><line class="a" x1="604.421" y2="605.882" transform="translate(1.235)"/><path class="b" d="M1083.014,333.24,478.593,939.122H476.14L1080.561,333.24Z" transform="translate(-476.14 -333.24)"/></g><g transform="translate(693.461 333.24)"><line class="a" x1="604.421" y2="605.882" transform="translate(1.218)"/><path class="b" d="M1105.464,333.24,501.043,939.122H498.59L1103.011,333.24Z" transform="translate(-498.59 -333.24)"/></g><g transform="translate(732.495 333.24)"><line class="a" x1="604.404" y2="605.882" transform="translate(1.235)"/><path class="b" d="M1127.9,333.24,523.483,939.122H521.03L1125.451,333.24Z" transform="translate(-521.03 -333.24)"/></g><g transform="translate(771.529 333.24)"><line class="a" x1="604.421" y2="605.882" transform="translate(1.235)"/><path class="b" d="M1150.361,333.24,545.94,939.122h-2.47L1147.908,333.24Z" transform="translate(-543.47 -333.24)"/></g><g transform="translate(810.581 333.24)"><line class="a" x1="604.421" y2="605.882" transform="translate(1.235)"/><path class="b" d="M1172.794,333.24,568.373,939.122H565.92L1170.341,333.24Z" transform="translate(-565.92 -333.24)"/></g><g transform="translate(849.615 333.24)"><line class="a" x1="604.421" y2="605.882" transform="translate(1.235)"/><path class="b" d="M1195.251,333.24,590.83,939.122h-2.47L1192.8,333.24Z" transform="translate(-588.36 -333.24)"/></g><g transform="translate(888.667 333.24)"><line class="a" x1="604.438" y2="605.882" transform="translate(1.218)"/><path class="b" d="M1217.684,333.24,613.263,939.122H610.81L1215.231,333.24Z" transform="translate(-610.81 -333.24)"/></g><g transform="translate(927.701 333.24)"><line class="a" x1="604.421" y2="605.882" transform="translate(1.235)"/><path class="b" d="M1239.619,333.24v.522l-603.9,605.36h-2.47L1237.671,333.24Z" transform="translate(-633.25 -333.24)"/></g><g transform="translate(966.752 370.448)"><line class="a" x1="566.1" y2="567.457" transform="translate(1.218 1.218)"/><path class="b" d="M1223.018,354.63v2.435L658.153,923.3H655.7Z" transform="translate(-655.7 -354.63)"/></g><g transform="translate(1005.786 409.569)"><line class="a" x1="527.048" y2="528.318" transform="translate(1.235 1.235)"/><path class="b" d="M1206.424,377.12v2.453l-525.831,527.1H678.14Z" transform="translate(-678.14 -377.12)"/></g><g transform="translate(1044.838 448.707)"><line class="a" x1="488.014" y2="489.197" transform="translate(1.218 1.218)"/><path class="b" d="M1189.822,399.62v2.47L703.043,890.035H700.59Z" transform="translate(-700.59 -399.62)"/></g><g transform="translate(1083.872 487.829)"><line class="a" x1="448.963" y2="450.041" transform="translate(1.235 1.252)"/><path class="b" d="M1173.228,422.11v2.47L725.483,873.4H723.03Z" transform="translate(-723.03 -422.11)"/></g><g transform="translate(1122.906 526.967)"><line class="a" x1="409.929" y2="410.92" transform="translate(1.235 1.235)"/><path class="b" d="M1156.634,444.61V447.1L747.94,856.765h-2.47Z" transform="translate(-745.47 -444.61)"/></g><g transform="translate(1161.975 566.123)"><line class="a" x1="370.894" y2="371.781" transform="translate(1.2 1.218)"/><path class="b" d="M1140.025,467.12v2.453L770.383,840.119H767.93Z" transform="translate(-767.93 -467.12)"/></g><g transform="translate(1201.01 605.262)"><line class="a" x1="331.825" y2="332.626" transform="translate(1.235 1.235)"/><path class="b" d="M1123.43,489.62v2.453L792.823,823.481H790.37Z" transform="translate(-790.37 -489.62)"/></g><g transform="translate(1240.044 644.4)"><line class="a" x1="292.791" y2="293.504" transform="translate(1.235 1.218)"/><path class="b" d="M1106.836,512.12v2.453L815.28,806.842h-2.47Z" transform="translate(-812.81 -512.12)"/></g><g transform="translate(1279.095 683.521)"><line class="a" x1="253.757" y2="254.366" transform="translate(1.218 1.235)"/><path class="b" d="M1090.235,534.61v2.47L837.713,790.211H835.26Z" transform="translate(-835.26 -534.61)"/></g><g transform="translate(1318.13 722.66)"><line class="a" x1="214.705" y2="215.227" transform="translate(1.235 1.235)"/><path class="b" d="M1073.64,557.11v2.47L860.17,773.572H857.7Z" transform="translate(-857.7 -557.11)"/></g><g transform="translate(1357.181 761.816)"><line class="a" x1="175.671" y2="176.089" transform="translate(1.218 1.218)"/><path class="b" d="M1057.039,579.62v2.453L882.6,756.926H880.15Z" transform="translate(-880.15 -579.62)"/></g><g transform="translate(1396.215 800.937)"><line class="a" x1="136.62" y2="136.95" transform="translate(1.235 1.235)"/><path class="b" d="M1040.445,602.11v2.453L905.043,740.3H902.59Z" transform="translate(-902.59 -602.11)"/></g><g transform="translate(1435.267 840.076)"><line class="a" x1="97.585" y2="97.812" transform="translate(1.218 1.235)"/><path class="b" d="M1023.843,624.61v2.453l-96.35,96.594H925.04Z" transform="translate(-925.04 -624.61)"/></g><g transform="translate(1474.301 879.214)"><line class="a" x1="58.534" y2="58.673" transform="translate(1.235 1.235)"/><path class="b" d="M1007.249,647.11v2.453l-57.316,57.455H947.48Z" transform="translate(-947.48 -647.11)"/></g><g transform="translate(1513.335 918.335)"><line class="a" x1="19.5" y2="19.534" transform="translate(1.235 1.252)"/><path class="b" d="M990.655,669.6v2.488l-18.265,18.3h-2.47Z" transform="translate(-969.92 -669.6)"/></g></g></svg>