<svg xmlns="http://www.w3.org/2000/svg" width="1667.456" height="777.738" viewBox="0 0 1667.456 777.738"><defs><style>.a{fill:none;}.b{fill:#dbdbdb;}</style></defs><g transform="translate(-235.07 -333.24)"><g transform="translate(235.07 333.24)"><line class="a" x1="12.683" y2="12.705"/><path class="b" d="M249.338,333.24,235.07,347.53v-3.148l11.1-11.142Z" transform="translate(-235.07 -333.24)"/></g><g transform="translate(235.07 333.24)"><line class="a" x1="62.811" y2="62.945"/><path class="b" d="M299.444,333.24,235.07,397.771V394.6l61.2-61.36Z" transform="translate(-235.07 -333.24)"/></g><g transform="translate(235.07 333.24)"><line class="a" x1="112.917" y2="113.185"/><path class="b" d="M349.573,333.24,235.07,448.011v-3.148L346.424,333.24Z" transform="translate(-235.07 -333.24)"/></g><g transform="translate(235.07 333.24)"><line class="a" x1="163.046" y2="163.425"/><path class="b" d="M399.679,333.24,235.07,498.251V495.08L396.53,333.24Z" transform="translate(-235.07 -333.24)"/></g><g transform="translate(235.07 333.24)"><line class="a" x1="213.152" y2="213.665"/><path class="b" d="M449.807,333.24,235.07,548.491V545.32L446.636,333.24Z" transform="translate(-235.07 -333.24)"/></g><g transform="translate(235.07 333.24)"><line class="a" x1="263.28" y2="263.905"/><path class="b" d="M499.913,333.24,235.07,598.731V595.56L496.765,333.24Z" transform="translate(-235.07 -333.24)"/></g><g transform="translate(235.07 333.24)"><line class="a" x1="313.386" y2="314.145"/><path class="b" d="M550.042,333.24,235.07,648.971v-3.193l311.8-312.538Z" transform="translate(-235.07 -333.24)"/></g><g transform="translate(235.07 333.24)"><line class="a" x1="363.492" y2="364.363"/><path class="b" d="M600.148,333.24,235.07,699.211V696.04L597,333.24Z" transform="translate(-235.07 -333.24)"/></g><g transform="translate(235.07 333.24)"><line class="a" x1="413.621" y2="414.626"/><path class="b" d="M650.254,333.24,235.07,749.429V746.28L647.105,333.24Z" transform="translate(-235.07 -333.24)"/></g><g transform="translate(235.07 333.24)"><line class="a" x1="463.727" y2="464.843"/><path class="b" d="M700.382,333.24,235.07,799.691V796.52L697.234,333.24Z" transform="translate(-235.07 -333.24)"/></g><g transform="translate(235.07 333.24)"><line class="a" x1="513.855" y2="515.083"/><path class="b" d="M750.51,333.24,235.07,849.909V846.76L747.34,333.24Z" transform="translate(-235.07 -333.24)"/></g><g transform="translate(235.07 333.24)"><line class="a" x1="563.984" y2="565.346"/><path class="b" d="M800.617,333.24,235.07,900.149v-3.171L797.446,333.24Z" transform="translate(-235.07 -333.24)"/></g><g transform="translate(235.07 333.24)"><line class="a" x1="614.09" y2="615.563"/><path class="b" d="M850.745,333.24,235.07,950.389V947.24l612.527-614Z" transform="translate(-235.07 -333.24)"/></g><g transform="translate(235.07 333.24)"><line class="a" x1="664.218" y2="665.803"/><path class="b" d="M900.851,333.24,235.07,1000.629v-3.171L897.7,333.24Z" transform="translate(-235.07 -333.24)"/></g><g transform="translate(235.07 333.24)"><line class="a" x1="714.324" y2="716.043"/><path class="b" d="M950.979,333.24,235.07,1050.869V1047.7L947.809,333.24Z" transform="translate(-235.07 -333.24)"/></g><g transform="translate(235.07 333.24)"><line class="a" x1="764.453" y2="766.283"/><path class="b" d="M1001.086,333.24,235.07,1101.109v-3.171l762.867-764.7Z" transform="translate(-235.07 -333.24)"/></g><g transform="translate(272.158 333.24)"><line class="a" x1="775.863" y2="777.738" transform="translate(1.608)"/><path class="b" d="M1030.736,333.24,254.851,1110.978H251.68L1027.565,333.24Z" transform="translate(-251.68 -333.24)"/></g><g transform="translate(322.309 333.24)"><line class="a" x1="775.863" y2="777.738" transform="translate(1.563)"/><path class="b" d="M1053.151,333.24,277.266,1110.978H274.14L1050,333.24Z" transform="translate(-274.14 -333.24)"/></g><g transform="translate(372.415 333.24)"><line class="a" x1="775.863" y2="777.738" transform="translate(1.585)"/><path class="b" d="M1075.591,333.24,299.728,1110.978H296.58L1072.443,333.24Z" transform="translate(-296.58 -333.24)"/></g><g transform="translate(422.521 333.24)"><line class="a" x1="775.863" y2="777.738" transform="translate(1.585)"/><path class="b" d="M1098.053,333.24,322.191,1110.978H319.02L1094.9,333.24Z" transform="translate(-319.02 -333.24)"/></g><g transform="translate(472.65 333.24)"><line class="a" x1="775.863" y2="777.738" transform="translate(1.585)"/><path class="b" d="M1120.5,333.24,344.618,1110.978H341.47L1117.333,333.24Z" transform="translate(-341.47 -333.24)"/></g><g transform="translate(522.756 333.24)"><line class="a" x1="775.84" y2="777.738" transform="translate(1.608)"/><path class="b" d="M1142.943,333.24,367.081,1110.978H363.91L1139.795,333.24Z" transform="translate(-363.91 -333.24)"/></g><g transform="translate(572.884 333.24)"><line class="a" x1="775.885" y2="777.738" transform="translate(1.563)"/><path class="b" d="M1165.371,333.24,389.508,1110.978H386.36L1162.223,333.24Z" transform="translate(-386.36 -333.24)"/></g><g transform="translate(622.99 333.24)"><line class="a" x1="775.863" y2="777.738" transform="translate(1.585)"/><path class="b" d="M1187.833,333.24,411.948,1110.978H408.8L1184.685,333.24Z" transform="translate(-408.8 -333.24)"/></g><g transform="translate(673.119 333.24)"><line class="a" x1="775.863" y2="777.738" transform="translate(1.585)"/><path class="b" d="M1210.261,333.24,434.4,1110.978H431.25L1207.113,333.24Z" transform="translate(-431.25 -333.24)"/></g><g transform="translate(723.247 333.24)"><line class="a" x1="775.885" y2="777.738" transform="translate(1.563)"/><path class="b" d="M1232.711,333.24,456.848,1110.978H453.7L1229.563,333.24Z" transform="translate(-453.7 -333.24)"/></g><g transform="translate(773.353 333.24)"><line class="a" x1="775.863" y2="777.738" transform="translate(1.585)"/><path class="b" d="M1255.151,333.24,479.288,1110.978H476.14L1252,333.24Z" transform="translate(-476.14 -333.24)"/></g><g transform="translate(823.482 333.24)"><line class="a" x1="775.863" y2="777.738" transform="translate(1.563)"/><path class="b" d="M1277.6,333.24,501.738,1110.978H498.59L1274.453,333.24Z" transform="translate(-498.59 -333.24)"/></g><g transform="translate(873.588 333.24)"><line class="a" x1="775.84" y2="777.738" transform="translate(1.585)"/><path class="b" d="M1300.041,333.24,524.178,1110.978H521.03L1296.893,333.24Z" transform="translate(-521.03 -333.24)"/></g><g transform="translate(923.693 333.24)"><line class="a" x1="775.863" y2="777.738" transform="translate(1.585)"/><path class="b" d="M1322.5,333.24,546.641,1110.978H543.47L1319.355,333.24Z" transform="translate(-543.47 -333.24)"/></g><g transform="translate(973.822 333.24)"><line class="a" x1="775.863" y2="777.738" transform="translate(1.585)"/><path class="b" d="M1344.931,333.24,569.068,1110.978H565.92L1341.783,333.24Z" transform="translate(-565.92 -333.24)"/></g><g transform="translate(1023.928 333.24)"><line class="a" x1="775.863" y2="777.738" transform="translate(1.585)"/><path class="b" d="M1367.393,333.24,591.531,1110.978H588.36L1364.245,333.24Z" transform="translate(-588.36 -333.24)"/></g><g transform="translate(1074.056 333.24)"><line class="a" x1="775.885" y2="777.738" transform="translate(1.563)"/><path class="b" d="M1389.821,333.24,613.958,1110.978H610.81L1386.673,333.24Z" transform="translate(-610.81 -333.24)"/></g><g transform="translate(1124.163 333.24)"><line class="a" x1="775.863" y2="777.738" transform="translate(1.585)"/><path class="b" d="M1411.614,333.24v.67L636.421,1110.978H633.25L1409.112,333.24Z" transform="translate(-633.25 -333.24)"/></g><g transform="translate(1174.291 381.002)"><line class="a" x1="726.672" y2="728.414" transform="translate(1.563 1.563)"/><path class="b" d="M1383.935,354.63v3.126L658.848,1084.607H655.7Z" transform="translate(-655.7 -354.63)"/></g><g transform="translate(1224.397 431.219)"><line class="a" x1="676.544" y2="678.174" transform="translate(1.585 1.585)"/><path class="b" d="M1356.269,377.12v3.148L681.288,1056.879H678.14Z" transform="translate(-678.14 -377.12)"/></g><g transform="translate(1274.526 481.459)"><line class="a" x1="626.438" y2="627.956" transform="translate(1.563 1.563)"/><path class="b" d="M1328.591,399.62v3.171L703.738,1029.139H700.59Z" transform="translate(-700.59 -399.62)"/></g><g transform="translate(1324.631 531.677)"><line class="a" x1="576.309" y2="577.694" transform="translate(1.585 1.608)"/><path class="b" d="M1300.925,422.11v3.171l-574.746,576.13H723.03Z" transform="translate(-723.03 -422.11)"/></g><g transform="translate(1374.738 581.917)"><line class="a" x1="526.203" y2="527.476" transform="translate(1.585 1.585)"/><path class="b" d="M1273.258,444.61V447.8L748.641,973.671H745.47Z" transform="translate(-745.47 -444.61)"/></g><g transform="translate(1424.888 632.179)"><line class="a" x1="476.097" y2="477.236" transform="translate(1.541 1.563)"/><path class="b" d="M1245.568,467.12v3.148L771.078,945.919H767.93Z" transform="translate(-767.93 -467.12)"/></g><g transform="translate(1474.994 682.419)"><line class="a" x1="425.946" y2="426.973" transform="translate(1.585 1.585)"/><path class="b" d="M1217.9,489.62v3.148L793.518,918.179H790.37Z" transform="translate(-790.37 -489.62)"/></g><g transform="translate(1525.1 732.66)"><line class="a" x1="375.84" y2="376.756" transform="translate(1.585 1.563)"/><path class="b" d="M1190.236,512.12v3.148L815.981,890.439H812.81Z" transform="translate(-812.81 -512.12)"/></g><g transform="translate(1575.229 782.877)"><line class="a" x1="325.734" y2="326.516" transform="translate(1.563 1.585)"/><path class="b" d="M1162.557,534.61v3.171L838.408,862.711H835.26Z" transform="translate(-835.26 -534.61)"/></g><g transform="translate(1625.335 833.117)"><line class="a" x1="275.606" y2="276.276" transform="translate(1.585 1.585)"/><path class="b" d="M1134.891,557.11v3.171l-274.02,274.69H857.7Z" transform="translate(-857.7 -557.11)"/></g><g transform="translate(1675.463 883.38)"><line class="a" x1="225.5" y2="226.036" transform="translate(1.563 1.563)"/><path class="b" d="M1107.213,579.62v3.148L883.3,807.218H880.15Z" transform="translate(-880.15 -579.62)"/></g><g transform="translate(1725.569 933.597)"><line class="a" x1="175.371" y2="175.796" transform="translate(1.585 1.585)"/><path class="b" d="M1079.547,602.11v3.148L905.738,779.491H902.59Z" transform="translate(-902.59 -602.11)"/></g><g transform="translate(1775.698 983.837)"><line class="a" x1="125.265" y2="125.555" transform="translate(1.563 1.585)"/><path class="b" d="M1051.868,624.61v3.148L928.188,751.751H925.04Z" transform="translate(-925.04 -624.61)"/></g><g transform="translate(1825.804 1034.077)"><line class="a" x1="75.137" y2="75.315" transform="translate(1.585 1.585)"/><path class="b" d="M1024.2,647.11v3.148l-73.574,73.752H947.48Z" transform="translate(-947.48 -647.11)"/></g><g transform="translate(1875.91 1084.295)"><line class="a" x1="25.031" y2="25.075" transform="translate(1.585 1.608)"/><path class="b" d="M996.536,669.6v3.193l-23.445,23.49H969.92Z" transform="translate(-969.92 -669.6)"/></g></g></svg>