<svg xmlns="http://www.w3.org/2000/svg" width="16.012" height="10.809" viewBox="0 0 16.012 10.809"><defs><style>.a{fill:#fff;}</style></defs><path class="a" d="M.072,13.919V5.025q0-.015.046-.293L5.353,9.21.134,14.228a1.309,1.309,0,0,1-.062-.309Zm.695-9.8a.665.665,0,0,1,.262-.046h14.1a.874.874,0,0,1,.278.046l-5.25,4.493-.695.556L8.086,10.291,6.712,9.163l-.695-.556ZM.782,14.83,6.048,9.781l2.038,1.652,2.038-1.652,5.265,5.049a.741.741,0,0,1-.262.046H1.029a.7.7,0,0,1-.247-.046ZM10.819,9.21l5.219-4.478a.922.922,0,0,1,.046.293v8.894a1.184,1.184,0,0,1-.046.309Z" transform="translate(-0.072 -4.068)"/></svg>