<svg xmlns="http://www.w3.org/2000/svg" width="18.188" height="11.367" viewBox="0 0 18.188 11.367"><defs><style>.a{fill:#fff;}</style></defs><path class="a" d="M11.949,9.369a4.821,4.821,0,0,1,.093.946,5.243,5.243,0,0,1-5.459,5.552,5.684,5.684,0,0,1,0-11.367,5.429,5.429,0,0,1,3.807,1.489L8.848,7.47a3.191,3.191,0,0,0-2.264-.876,3.591,3.591,0,0,0,0,7.18,3.078,3.078,0,0,0,3.226-2.45H6.584V9.369h5.366Zm5.488.191V7.91H15.78V9.56H14.13v1.658h1.65v1.65h1.658v-1.65h1.65V9.56h-1.65Z" transform="translate(-0.9 -4.5)"/></svg>